<svg width="40" height="41" fill="none" xmlns="http://www.w3.org/2000/svg"><rect y=".722" width="40" height="40" rx="7" fill="#FCFCFC"/><g clip-path="url(#clip0_2224_6383)"><path d="M15.313 18.925a1.76 1.76 0 00-1.758 1.758v4.765c0 .97.788 1.758 1.758 1.758a1.76 1.76 0 001.757-1.758v-4.765a1.76 1.76 0 00-1.758-1.758zm-2.93 1.758c0-.17.022-.333.05-.494a1.754 1.754 0 00-1.222 1.666v2.421c0 .782.516 1.438 1.222 1.666a2.908 2.908 0 01-.05-.494v-4.765zm12.305-1.758a1.76 1.76 0 00-1.758 1.758v4.765c0 .97.788 1.758 1.758 1.758.176 0 .343-.034.503-.082a1.754 1.754 0 01-1.675 1.254H21.65A1.755 1.755 0 0020 27.206a1.76 1.76 0 00-1.758 1.758c0 .97.789 1.758 1.758 1.758.763 0 1.407-.492 1.65-1.172h1.866a2.933 2.933 0 002.93-2.93v-5.937a1.76 1.76 0 00-1.759-1.758zm2.879 1.265c.028.16.05.324.05.493v4.765c0 .17-.022.332-.05.494a1.754 1.754 0 001.222-1.666v-2.421c0-.782-.515-1.438-1.222-1.666z" fill="#F46865"/><path d="M20 10.722c-4.847 0-8.79 3.942-8.79 8.789v.015c.35-.265.754-.458 1.2-.545.274-3.953 3.569-7.087 7.59-7.087s7.317 3.134 7.59 7.087c.446.087.85.28 1.2.545v-.015c0-4.847-3.943-8.79-8.79-8.79z" fill="#000"/></g><defs><clipPath id="clip0_2224_6383"><path fill="#fff" transform="translate(10 10.722)" d="M0 0h20v20H0z"/></clipPath></defs></svg>