<svg width="40" height="41" fill="none" xmlns="http://www.w3.org/2000/svg"><rect y=".722" width="40" height="40" rx="7" fill="#FCFCFC"/><path d="M22.994 13.244c-.76-.82-1.822-1.272-2.994-1.272-1.178 0-2.243.449-3 1.264-.765.825-1.137 1.946-1.05 3.156.174 2.387 1.99 4.33 4.05 4.33 2.06 0 3.873-1.942 4.05-4.33.088-1.198-.287-2.317-1.056-3.148z" fill="#F46865"/><path d="M26.875 29.222h-13.75a1.211 1.211 0 01-.945-.435 1.38 1.38 0 01-.28-1.137c.33-1.83 1.358-3.365 2.975-4.444 1.437-.957 3.257-1.484 5.125-1.484 1.869 0 3.689.527 5.125 1.484 1.617 1.078 2.646 2.614 2.976 4.443a1.38 1.38 0 01-.28 1.137 1.21 1.21 0 01-.946.436z" fill="#171926"/></svg>