<svg width="40" height="41" fill="none" xmlns="http://www.w3.org/2000/svg"><rect y=".722" width="40" height="40" rx="7" fill="#FCFCFC"/><path d="M24.583 18.638H11.25c-.69 0-1.25.561-1.25 1.25v5c0 .69.56 1.25 1.25 1.25h13.333c.69 0 1.25-.56 1.25-1.25v-5c0-.689-.56-1.25-1.25-1.25zM14.12 20.912c-.384.747-.947 1.996-1.135 2.74a.41.41 0 01.348.403c0 .23-.186.417-.416.417h-.834a.417.417 0 010-.834h.054c.151-.75.622-1.823.943-2.5h-.58a.417.417 0 01-.833 0v-.416c0-.23.186-.417.416-.417h1.667a.417.417 0 01.37.608zm1.713 3.976a.417.417 0 01-.833 0v-5a.417.417 0 01.833 0v5zm3.287-3.976c-.384.747-.948 1.996-1.135 2.74a.41.41 0 01.348.403c0 .23-.186.417-.416.417h-.834a.417.417 0 010-.834h.054c.151-.75.622-1.823.943-2.5h-.58a.417.417 0 01-.833 0v-.416c0-.23.186-.417.416-.417h1.667a.417.417 0 01.37.608zm1.713 3.976a.417.417 0 01-.833 0v-5a.417.417 0 01.833 0v5zm3.287-3.976c-.384.747-.948 1.996-1.135 2.74a.41.41 0 01.348.403c0 .23-.186.417-.416.417h-.834a.417.417 0 010-.834h.054c.151-.75.622-1.823.943-2.5h-.58a.417.417 0 01-.833 0v-.416c0-.23.186-.417.416-.417h1.667a.417.417 0 01.37.608z" fill="#171926"/><path d="M28.75 16.972a.417.417 0 00-.417.416v4.584h-1.25a.417.417 0 000 .833h1.667c.23 0 .416-.187.416-.417v-5a.417.417 0 00-.416-.416z" fill="#F46865"/><path d="M28.75 17.805a1.25 1.25 0 100-2.5 1.25 1.25 0 000 2.5z" fill="#F46865"/><path d="M25.417 19.472a.417.417 0 000 .833v4.167a.417.417 0 000 .833h.416v-5.833h-.416zm1.249.076v5.68c.485-.172.834-.63.834-1.173v-3.333a1.25 1.25 0 00-.834-1.174z" fill="#171926"/></svg>