<svg width="40" height="41" fill="none" xmlns="http://www.w3.org/2000/svg"><rect y=".722" width="40" height="40" rx="7" fill="#FCFCFC"/><g clip-path="url(#clip0_2226_6386)"><path d="M18.234 17.606a.586.586 0 10.401-1.101.586.586 0 00-.4 1.1z" fill="#F46865"/><path d="M20.315 19.327a9.414 9.414 0 005.562-2.024c.202-.16.44-.252.687-.312l.23-.635a.585.585 0 00-.186-.659 11.781 11.781 0 00-6.955-2.531c-2.2-.06-4.29-.83-6.047-2.153l-.213-.165a.587.587 0 00-.914.26l-2.443 6.645a.585.585 0 00.186.66c1.382 1.096 3.05 1.857 4.767 2.243a12.944 12.944 0 015.326-1.329zm.873-1.27a.586.586 0 111.1.4.586.586 0 01-1.1-.4zm-4.405-1.603a1.76 1.76 0 012.253-1.05 1.76 1.76 0 011.05 2.252 1.76 1.76 0 01-2.252 1.05 1.756 1.756 0 01-1.05-2.252zm-2.203-.802a.586.586 0 111.102.401.586.586 0 01-1.102-.4z" fill="#F46865"/><path d="M15.61 30.336a.584.584 0 00.915.259c1.773-1.408 3.996-2.256 6.259-2.317 2.515-.07 5.024-.969 6.994-2.532a.585.585 0 00.186-.66L27.52 18.48a.584.584 0 00-.915-.259 10.595 10.595 0 01-6.258 2.277 11.78 11.78 0 00-6.956 2.532.585.585 0 00-.186.66l2.405 6.646zm9.058-7.701a.586.586 0 11.401 1.102.586.586 0 01-.4-1.102zm-3.704.101a1.76 1.76 0 012.253 1.05 1.756 1.756 0 11-2.253-1.05zm-2.903 2.304a.586.586 0 11.401 1.101.586.586 0 01-.4-1.101z" fill="#171926"/><path d="M21.766 24.939a.586.586 0 10-.402-1.102.586.586 0 00.402 1.102z" fill="#171926"/></g><defs><clipPath id="clip0_2226_6386"><path fill="#fff" transform="translate(10 10.722)" d="M0 0h20v20H0z"/></clipPath></defs></svg>