<svg width="40" height="41" fill="none" xmlns="http://www.w3.org/2000/svg"><rect y=".722" width="40" height="40" rx="7" fill="#FCFCFC"/><g clip-path="url(#clip0_2224_6381)"><path d="M29.59 10.724c-3.904-.07-8.357 1.971-11.175 5.137a10.575 10.575 0 00-7.246 3.086.417.417 0 00.233.709l3.212.46-.397.444a.416.416 0 00.016.573l5.356 5.355a.415.415 0 00.573.016l.444-.396.46 3.211c.023.157.146.272.295.322a.383.383 0 00.12.018.47.47 0 00.322-.134 10.552 10.552 0 003.059-7.22c3.169-2.824 5.227-7.275 5.136-11.174a.419.419 0 00-.408-.407zm-3.84 7.194a2.08 2.08 0 01-1.473.609 2.077 2.077 0 01-1.474-.61 2.087 2.087 0 010-2.946 2.086 2.086 0 012.947 0 2.086 2.086 0 010 2.947z" fill="#171926"/><path d="M12.27 24.81c-.892.89-2.116 4.92-2.252 5.375a.418.418 0 00.519.52c.455-.137 4.484-1.362 5.375-2.253a2.579 2.579 0 000-3.643 2.58 2.58 0 00-3.642 0z" fill="#F46865"/></g><defs><clipPath id="clip0_2224_6381"><path fill="#fff" transform="translate(10 10.722)" d="M0 0h20v20H0z"/></clipPath></defs></svg>