<svg width="40" height="41" fill="none" xmlns="http://www.w3.org/2000/svg"><rect y=".722" width="40" height="40" rx="7" fill="#FCFCFC"/><g clip-path="url(#clip0_2226_6384)"><path d="M25.52 17.125a.586.586 0 00-.93.152 6.75 6.75 0 01-1.1 1.55c.043-.332.065-.668.065-1.004 0-.645-.086-1.309-.257-1.973a7.927 7.927 0 00-4.035-5.063.586.586 0 00-.853.475 6.727 6.727 0 01-2.868 4.997 2.797 2.797 0 01-.125.089l-.018.012a7.984 7.984 0 00-2.441 2.824 7.836 7.836 0 00-.879 3.616c0 .645.086 1.309.257 1.973A7.913 7.913 0 0020 30.722c4.368 0 7.921-3.554 7.921-7.922 0-2.154-.853-4.17-2.401-5.675z" fill="#171926"/></g><defs><clipPath id="clip0_2226_6384"><path fill="#fff" transform="translate(10 10.722)" d="M0 0h20v20H0z"/></clipPath></defs></svg>