<svg width="20" height="20" fill="none" xmlns="http://www.w3.org/2000/svg"><path d="M3.125 16.25a2.5 2.5 0 002.5 2.5H9.22a.156.156 0 00.156-.156v-7.188a.156.156 0 00-.156-.156H3.438a.313.313 0 00-.313.313v4.687zm6.25-6.406V5.625h1.25v4.219a.156.156 0 00.156.156h5.47a1.872 1.872 0 001.53-.793 1.88 1.88 0 00.344-1.082V7.5a1.875 1.875 0 00-1.875-1.875h-1.583a.078.078 0 01-.067-.117 2.812 2.812 0 00-4.6-3.21 2.812 2.812 0 00-4.6 3.21.078.078 0 01-.066.117H3.75A1.875 1.875 0 001.875 7.5v.625A1.879 1.879 0 003.75 10h5.47a.156.156 0 00.156-.156zm1.25-5.782a1.562 1.562 0 111.563 1.563h-1.563V4.062zM7.701 2.504a1.563 1.563 0 011.674 1.558v1.563H7.813a1.563 1.563 0 01-.112-3.12v-.001zm3.08 16.246h3.594a2.5 2.5 0 002.5-2.5v-4.688a.313.313 0 00-.312-.312h-5.781a.156.156 0 00-.157.156v7.188a.156.156 0 00.156.156z" fill="#8349F8"/></svg>