<svg width="20" height="20" fill="none" xmlns="http://www.w3.org/2000/svg"><g clip-path="url(#clip0_2119_5777)"><path d="M19.947 7.659c-.155-.474-.615-.8-1.263-.895l-5.143-.747-2.3-4.66c-.29-.588-.742-.925-1.24-.925-.5 0-.952.337-1.242.925l-2.3 4.66-5.142.747c-.649.095-1.109.42-1.263.895-.154.474.027 1.008.496 1.466l3.721 3.627-.878 5.122c-.116.674.08 1.077.265 1.296.217.256.532.398.889.398.27 0 .557-.08.853-.235l4.6-2.419 4.6 2.418c.297.156.584.236.854.236.356 0 .672-.142.888-.398.185-.22.382-.623.266-1.296l-.879-5.122 3.722-3.627c.469-.458.65-.992.495-1.466z" fill="#C9AF27"/></g><defs><clipPath id="clip0_2119_5777"><path fill="#fff" d="M0 0h20v20H0z"/></clipPath></defs></svg>