<svg width="20" height="20" fill="none" xmlns="http://www.w3.org/2000/svg"><g clip-path="url(#clip0_2119_5771)"><path d="M15.52 6.403a.586.586 0 00-.93.152 6.747 6.747 0 01-1.1 1.551 7.76 7.76 0 00.065-1.005c0-.645-.086-1.308-.257-1.973A7.927 7.927 0 009.263.065.586.586 0 008.41.54a6.727 6.727 0 01-2.804 4.95l-.064.048c-.044.032-.086.063-.125.088a7.983 7.983 0 00-2.459 2.836 7.835 7.835 0 00-.879 3.617c0 .644.087 1.308.257 1.973A7.913 7.913 0 0010.001 20c4.367 0 7.92-3.553 7.92-7.921 0-2.154-.852-4.17-2.401-5.676z" fill="#F46865"/></g><defs><clipPath id="clip0_2119_5771"><path fill="#fff" d="M0 0h20v20H0z"/></clipPath></defs></svg>