<svg width="120" height="39" fill="none" xmlns="http://www.w3.org/2000/svg"><path d="M12.72 23.3l-.253-17.35h6.01c.32 0 .695-.038.976-.288.296-.265.357-.644.357-.987V2.85c0-.342-.06-.724-.369-.983-.282-.236-.658-.263-.964-.263H2.157c-.306 0-.682.027-.964.263-.309.259-.369.641-.369.983v1.823c0 .343.06.722.357.987.28.25.656.288.976.288h5.649l.28 17.363c.001.315.038.7.316.978.277.277.67.322 1.018.322h1.967c.349 0 .742-.045 1.019-.322.278-.279.314-.666.314-.982V23.3zm14.454.008V23.3l-.29-20.396c0-.33-.05-.714-.339-.988-.281-.267-.672-.312-1.023-.312h-1.938c-.349 0-.741.044-1.019.321-.278.279-.314.667-.314.983v.007l.29 20.395c0 .316.036.701.314.979.277.277.67.322 1.018.322h1.968c.348 0 .74-.045 1.018-.322.278-.279.315-.666.315-.982zm3.768.016v.007c.015.301.056.681.32.954.275.282.664.327 1.013.327h1.968c.348 0 .744-.045 1.024-.317.29-.283.323-.677.308-1.006l-.158-5.21c2.524-.009 5.408-.58 7.732-1.925 2.505-1.45 4.377-3.817 4.377-7.314 0-1.9-.64-3.412-1.707-4.565-1.058-1.143-2.512-1.908-4.109-2.38-3.187-.938-7.068-.741-9.95.106h-.002c-.27.08-.506.159-.7.253a1.28 1.28 0 00-.52.43 1.365 1.365 0 00-.208.621 6.489 6.489 0 00-.024.703v.016l.636 19.3zM42.863 9.187c0 1.291-.715 2.324-2.106 3.062-1.32.7-3.216 1.107-5.544 1.156l-.232-7.6c2.438-.274 4.402-.124 5.757.422.711.287 1.237.676 1.585 1.153.346.474.54 1.067.54 1.807zm8.593 6.383h.015l9.266-.29a.81.81 0 00.425-.116.786.786 0 00.307-.367c.103-.239.121-.551.121-.879v-1.939c0-.324-.017-.636-.125-.873a.764.764 0 00-.32-.359.842.842 0 00-.417-.1h-.015l-9.266.289a.833.833 0 00-.407.1.767.767 0 00-.321.36c-.108.236-.125.548-.125.873v1.967c0 .325.017.637.125.874.063.139.165.27.321.359.148.083.3.1.416.1zm21.042 7.173v-.007l-.254-17.352h6.01c.32 0 .696-.038.976-.288.296-.264.357-.644.357-.987V2.286c0-.341-.06-.724-.369-.982-.282-.237-.658-.264-.964-.264h-16.32c-.306 0-.682.027-.964.264-.309.258-.368.641-.368.982V4.11c0 .343.06.723.356.987.28.25.656.288.976.288h5.649l.281 17.363c0 .316.037.701.315.978.277.278.67.322 1.018.322h1.968c.348 0 .74-.044 1.018-.322s.315-.666.315-.982zm30.114.017v.007c.014.3.055.68.32.953.274.283.664.327 1.012.327h1.968c.348 0 .744-.044 1.024-.317.291-.282.324-.676.309-1.006l-.158-5.21c2.524-.008 5.408-.58 7.731-1.924 2.506-1.45 4.377-3.818 4.377-7.314 0-1.9-.639-3.412-1.707-4.565-1.058-1.144-2.511-1.909-4.109-2.38-3.186-.938-7.067-.742-9.95.105h-.001c-.27.08-.507.16-.701.254a1.28 1.28 0 00-.52.43 1.359 1.359 0 00-.207.62 6.305 6.305 0 00-.025.704v.016l.637 19.3zm11.921-14.137c0 1.29-.715 2.324-2.107 3.061-1.32.7-3.216 1.108-5.543 1.157l-.232-7.601c2.437-.273 4.402-.123 5.756.423.712.287 1.237.675 1.585 1.153.346.474.541 1.067.541 1.807z" fill="#fff" stroke="#fff" stroke-width=".988"/><path d="M101.562 12.363c0 6.492-5.262 11.755-11.754 11.755s-11.755-5.263-11.755-11.755C78.053 5.87 83.316.608 89.808.608c6.492 0 11.754 5.263 11.754 11.755z" fill="#178B53"/><path d="M89.808 23.098c5.929 0 10.735-4.806 10.735-10.735 0-5.93-4.806-10.736-10.735-10.736-5.929 0-10.735 4.807-10.735 10.736s4.806 10.735 10.735 10.735zm11.261-10.735c0 6.219-5.042 11.26-11.26 11.26-6.22 0-11.262-5.041-11.262-11.26 0-6.22 5.042-11.261 11.261-11.261 6.22 0 11.261 5.041 11.261 11.26z" fill="#fff" stroke="#fff" stroke-width=".988"/><path d="M96.135 12.363a6.33 6.33 0 11-12.659 0 6.33 6.33 0 0112.66 0z" fill="#fff"/><path fill-rule="evenodd" clip-rule="evenodd" d="M96.015 13.598l-1.485-.294a4.834 4.834 0 000-1.883l1.485-.294a6.364 6.364 0 010 2.471zm-.946-4.752l-1.257.842a4.851 4.851 0 00-1.331-1.331l.842-1.258a6.358 6.358 0 011.746 1.747zm-4.028-2.692a6.356 6.356 0 00-2.47 0l.293 1.484a4.85 4.85 0 011.884 0l.293-1.484zm-4.752.945l.842 1.258a4.851 4.851 0 00-1.331 1.33l-1.257-.841a6.363 6.363 0 011.746-1.747zm-2.692 4.028a6.357 6.357 0 000 2.471l1.485-.294a4.834 4.834 0 010-1.883l-1.485-.294zm.946 4.752l1.257-.841c.352.526.805.979 1.33 1.33l-.841 1.258a6.364 6.364 0 01-1.746-1.747zm4.028 2.693l.293-1.485a4.85 4.85 0 001.884 0l.293 1.485a6.36 6.36 0 01-2.47 0zm4.752-.946l-.842-1.257a4.851 4.851 0 001.33-1.331l1.258.841a6.359 6.359 0 01-1.746 1.747z" fill="#178B53"/><path d="M9.001 30.772l-1.1 1.05c-.749-.79-1.591-1.185-2.527-1.185-.79 0-1.456.27-1.999.809-.539.539-.808 1.203-.808 1.993 0 .55.12 1.039.359 1.465.24.427.578.762 1.016 1.005a2.95 2.95 0 001.46.366c.457 0 .874-.085 1.252-.253.378-.172.794-.483 1.247-.932l1.066 1.11c-.61.596-1.186 1.01-1.729 1.241-.543.229-1.162.343-1.858.343-1.284 0-2.336-.406-3.156-1.219C1.408 35.75 1 34.706 1 33.433c0-.823.185-1.555.556-2.195.374-.64.908-1.155 1.6-1.544a4.528 4.528 0 012.246-.584c.681 0 1.336.144 1.965.432a4.7 4.7 0 011.634 1.23zm3.898-1.454h1.594l3.178 8.26h-1.634l-.645-1.702h-3.37l-.673 1.701H9.715l3.184-8.26zm.808 2.19l-1.1 2.835h2.195l-1.095-2.835zm9.519-1.068l-1.162 1.028c-.409-.569-.824-.853-1.247-.853a.75.75 0 00-.506.168c-.13.109-.196.232-.196.37 0 .14.047.27.14.394.128.164.511.518 1.151 1.06.6.502.962.819 1.09.95.318.322.542.63.673.926.135.292.203.612.203.96 0 .678-.234 1.238-.702 1.68-.468.441-1.079.662-1.83.662-.588 0-1.101-.144-1.539-.432-.434-.289-.807-.742-1.117-1.36l1.32-.797c.396.73.852 1.095 1.369 1.095.27 0 .496-.078.68-.236.183-.157.274-.338.274-.544a.94.94 0 00-.207-.562c-.139-.187-.444-.473-.915-.859-.899-.733-1.479-1.299-1.741-1.695-.262-.4-.393-.8-.393-1.196 0-.573.217-1.064.651-1.472.438-.411.977-.617 1.617-.617.412 0 .803.095 1.174.286.374.191.778.54 1.213 1.045zm1.542-1.122h1.56v8.26h-1.56v-8.26zm3.342 0h1.504l3.543 5.435v-5.435h1.573v8.26h-1.511l-3.537-5.419v5.418h-1.573v-8.26zm12.408-.208c1.167 0 2.171.423 3.009 1.269.843.846 1.264 1.877 1.264 3.094 0 1.205-.416 2.225-1.247 3.06-.827.834-1.832 1.252-3.015 1.252-1.239 0-2.269-.429-3.088-1.286-.82-.857-1.23-1.875-1.23-3.055a4.287 4.287 0 012.145-3.75 4.23 4.23 0 012.162-.584zm-.017 1.538c-.764 0-1.406.266-1.926.798-.52.531-.78 1.207-.78 2.027 0 .913.327 1.635.982 2.167a2.695 2.695 0 001.752.623c.745 0 1.38-.27 1.903-.808.524-.54.786-1.204.786-1.994 0-.786-.263-1.45-.791-1.993a2.577 2.577 0 00-1.926-.82z" fill="#178B53"/></svg>