<svg width="40" height="41" viewBox="0 0 40 41" fill="none" xmlns="http://www.w3.org/2000/svg">
<rect y="0.72168" width="40" height="40" rx="7" fill="#FCFCFC"/>
<path d="M24.5833 18.6384H11.25C10.5608 18.6384 10 19.1992 10 19.8884V24.8884C10 25.5775 10.5608 26.1384 11.25 26.1384H24.5833C25.2725 26.1384 25.8333 25.5775 25.8333 24.8884V19.8884C25.8333 19.1992 25.2725 18.6384 24.5833 18.6384ZM14.12 20.9125C13.7358 21.6592 13.1725 22.9084 12.985 23.6525C13.1817 23.6858 13.3333 23.8492 13.3333 24.055C13.3333 24.285 13.1466 24.4717 12.9166 24.4717H12.0833C11.8533 24.4717 11.6666 24.285 11.6666 24.055C11.6666 23.825 11.8533 23.6383 12.0833 23.6383H12.1366C12.2883 22.8875 12.7591 21.815 13.08 21.1383H12.5C12.5 21.3683 12.3133 21.555 12.0833 21.555C11.8533 21.555 11.6666 21.3683 11.6666 21.1383V20.7217C11.6666 20.4917 11.8533 20.305 12.0833 20.305H13.75C13.895 20.305 14.03 20.3808 14.1058 20.505C14.1817 20.6284 14.1867 20.7834 14.12 20.9125ZM15.8333 24.8884C15.8333 25.1184 15.6466 25.305 15.4166 25.305C15.1866 25.305 15 25.1184 15 24.8884V19.8884C15 19.6584 15.1867 19.4717 15.4167 19.4717C15.6467 19.4717 15.8334 19.6584 15.8334 19.8884V24.8884H15.8333ZM19.12 20.9125C18.7358 21.6592 18.1725 22.9083 17.985 23.6525C18.1817 23.6858 18.3333 23.8492 18.3333 24.055C18.3333 24.285 18.1466 24.4717 17.9166 24.4717H17.0833C16.8533 24.4717 16.6666 24.285 16.6666 24.055C16.6666 23.825 16.8533 23.6383 17.0833 23.6383H17.1366C17.2883 22.8875 17.7591 21.815 18.08 21.1383H17.5C17.5 21.3683 17.3133 21.555 17.0833 21.555C16.8533 21.555 16.6666 21.3683 16.6666 21.1383V20.7217C16.6666 20.4917 16.8533 20.305 17.0833 20.305H18.75C18.895 20.305 19.03 20.3808 19.1058 20.505C19.1817 20.6284 19.1867 20.7834 19.12 20.9125ZM20.8333 24.8884C20.8333 25.1184 20.6466 25.305 20.4166 25.305C20.1866 25.305 20 25.1184 20 24.8884V19.8884C20 19.6584 20.1867 19.4717 20.4167 19.4717C20.6467 19.4717 20.8334 19.6584 20.8334 19.8884V24.8884H20.8333ZM24.12 20.9125C23.7358 21.6592 23.1725 22.9083 22.985 23.6525C23.1817 23.6858 23.3333 23.8492 23.3333 24.055C23.3333 24.285 23.1466 24.4717 22.9166 24.4717H22.0833C21.8533 24.4717 21.6666 24.285 21.6666 24.055C21.6666 23.825 21.8533 23.6383 22.0833 23.6383H22.1366C22.2883 22.8875 22.7591 21.815 23.08 21.1383H22.5C22.5 21.3683 22.3133 21.555 22.0833 21.555C21.8533 21.555 21.6666 21.3683 21.6666 21.1383V20.7217C21.6666 20.4917 21.8533 20.305 22.0833 20.305H23.75C23.895 20.305 24.03 20.3808 24.1058 20.505C24.1817 20.6284 24.1867 20.7834 24.12 20.9125Z" fill="#171926"/>
<path d="M28.7499 16.9717C28.5199 16.9717 28.3332 17.1584 28.3332 17.3884V21.9717H27.0832C26.8532 21.9717 26.6665 22.1584 26.6665 22.3884C26.6665 22.6184 26.8532 22.805 27.0832 22.805H28.7499C28.9799 22.805 29.1665 22.6184 29.1665 22.3884V17.3884C29.1665 17.1584 28.9799 16.9717 28.7499 16.9717Z" fill="#F46865"/>
<path d="M28.75 17.805C29.4404 17.805 30 17.2453 30 16.555C30 15.8646 29.4404 15.305 28.75 15.305C28.0596 15.305 27.5 15.8646 27.5 16.555C27.5 17.2453 28.0596 17.805 28.75 17.805Z" fill="#F46865"/>
<path d="M25.4167 19.4717C25.1867 19.4717 25 19.6584 25 19.8884C25 20.1184 25.1867 20.305 25.4167 20.305V24.4717C25.1867 24.4717 25 24.6584 25 24.8884C25 25.1184 25.1867 25.305 25.4167 25.305H25.8334V19.4717H25.4167Z" fill="#171926"/>
<path d="M26.6665 19.5483V25.2283C27.1506 25.0558 27.4998 24.5975 27.4998 24.055V20.7217C27.4998 20.1792 27.1506 19.7208 26.6665 19.5483Z" fill="#171926"/>
</svg>
