<svg width="40" height="41" viewBox="0 0 40 41" fill="none" xmlns="http://www.w3.org/2000/svg">
<rect y="0.72168" width="40" height="40" rx="7" fill="#FCFCFC"/>
<path d="M22.9938 13.2443C22.2336 12.4236 21.1719 11.9717 20 11.9717C18.8219 11.9717 17.7567 12.4209 17 13.2365C16.2352 14.0611 15.8625 15.1818 15.95 16.392C16.1235 18.7795 17.9403 20.7217 20 20.7217C22.0598 20.7217 23.8735 18.7799 24.0497 16.3928C24.1383 15.1936 23.7633 14.0752 22.9938 13.2443Z" fill="#F46865"/>
<path d="M26.8752 29.2217H13.1252C12.9452 29.224 12.767 29.1862 12.6035 29.111C12.44 29.0358 12.2953 28.9251 12.1799 28.7869C11.926 28.4834 11.8237 28.0689 11.8994 27.6498C12.2291 25.8209 13.258 24.2846 14.8752 23.2061C16.3119 22.2486 18.1319 21.7217 20.0002 21.7217C21.8686 21.7217 23.6885 22.249 25.1252 23.2061C26.7424 24.2842 27.7713 25.8205 28.101 27.6494C28.1768 28.0686 28.0744 28.483 27.8205 28.7865C27.7052 28.9248 27.5605 29.0356 27.397 29.1108C27.2335 29.1861 27.0552 29.224 26.8752 29.2217Z" fill="#171926"/>
</svg>
