<svg width="40" height="41" viewBox="0 0 40 41" fill="none" xmlns="http://www.w3.org/2000/svg">
<rect y="0.72168" width="40" height="40" rx="7" fill="#FCFCFC"/>
<g clip-path="url(#clip0_2224_6381)">
<path d="M29.5901 10.7242C25.686 10.6542 21.2335 12.695 18.4151 15.8608C15.7218 15.9117 13.0993 17.0158 11.1685 18.9467C11.056 19.0575 11.016 19.2233 11.0651 19.3733C11.1151 19.5242 11.2451 19.6333 11.4018 19.6558L14.6135 20.1158L14.2168 20.56C14.0693 20.725 14.0768 20.9758 14.2335 21.1325L19.5893 26.4883C19.6701 26.5692 19.7768 26.61 19.8843 26.61C19.9835 26.61 20.0826 26.575 20.1618 26.5042L20.606 26.1075L21.066 29.3192C21.0885 29.4758 21.2118 29.5908 21.361 29.6408C21.3993 29.6533 21.4393 29.6592 21.4801 29.6592C21.5985 29.6592 21.7193 29.6075 21.8026 29.525C23.7068 27.6208 24.811 24.9983 24.8618 22.305C28.031 19.4808 30.0885 15.03 29.9976 11.1308C29.9918 10.9092 29.8126 10.73 29.5901 10.7242V10.7242ZM25.7501 17.9175C25.3443 18.3233 24.811 18.5267 24.2768 18.5267C23.7426 18.5267 23.2093 18.3233 22.8035 17.9175C21.9918 17.105 21.9918 15.7833 22.8035 14.9708C23.616 14.1583 24.9376 14.1583 25.7501 14.9708C26.5626 15.7833 26.5626 17.1058 25.7501 17.9175Z" fill="#171926"/>
<path d="M12.27 24.8091C11.3784 25.7008 10.1542 29.7291 10.0175 30.185C9.97338 30.3316 10.0142 30.4908 10.1217 30.5991C10.2017 30.6791 10.3075 30.7216 10.4167 30.7216C10.4567 30.7216 10.4967 30.7158 10.5367 30.7041C10.9925 30.5675 15.0209 29.3433 15.9125 28.4516C16.9167 27.4475 16.9167 25.8133 15.9125 24.8091C14.9075 23.805 13.2742 23.8058 12.27 24.8091V24.8091Z" fill="#F46865"/>
</g>
<defs>
<clipPath id="clip0_2224_6381">
<rect width="20" height="20" fill="white" transform="translate(10 10.7217)"/>
</clipPath>
</defs>
</svg>
