<svg width="40" height="41" viewBox="0 0 40 41" fill="none" xmlns="http://www.w3.org/2000/svg">
<rect y="0.72168" width="40" height="40" rx="7" fill="#FCFCFC"/>
<g clip-path="url(#clip0_2224_6383)">
<path d="M15.3125 18.9248C14.3432 18.9248 13.5547 19.7133 13.5547 20.6826V25.4482C13.5547 26.4175 14.3432 27.2061 15.3125 27.2061C16.2818 27.2061 17.0703 26.4175 17.0703 25.4482V20.6826C17.0703 19.7133 16.2818 18.9248 15.3125 18.9248Z" fill="#F46865"/>
<path d="M12.3828 20.6826C12.3828 20.5136 12.4051 20.3503 12.4327 20.1891C11.7266 20.4173 11.2109 21.0733 11.2109 21.8545V24.2764C11.2109 25.0576 11.7266 25.7135 12.4327 25.9417C12.4051 25.7805 12.3828 25.6173 12.3828 25.4482V20.6826Z" fill="#F46865"/>
<path d="M24.6875 18.9248C23.7182 18.9248 22.9297 19.7133 22.9297 20.6826V25.4482C22.9297 26.4175 23.7182 27.2061 24.6875 27.2061C24.8637 27.2061 25.0305 27.1721 25.1911 27.1237C24.973 27.8467 24.3088 28.3779 23.5156 28.3779H21.6499C21.4072 27.6974 20.7629 27.2061 20 27.2061C19.0307 27.2061 18.2422 27.9946 18.2422 28.9639C18.2422 29.9332 19.0307 30.7217 20 30.7217C20.7629 30.7217 21.4072 30.2304 21.6499 29.5498H23.5156C25.131 29.5498 26.4453 28.2355 26.4453 26.6201V25.4482V20.6826C26.4453 19.7133 25.6568 18.9248 24.6875 18.9248Z" fill="#F46865"/>
<path d="M27.5674 20.1891C27.595 20.3503 27.6173 20.5136 27.6173 20.6826V25.4482C27.6173 25.6173 27.595 25.7805 27.5674 25.9417C28.2736 25.7135 28.7892 25.0576 28.7892 24.2764V21.8545C28.7892 21.0733 28.2736 20.4173 27.5674 20.1891Z" fill="#F46865"/>
<path d="M20 10.7217C15.1534 10.7217 11.2109 14.6642 11.2109 19.5107V19.5257C11.56 19.2614 11.9639 19.068 12.4096 18.9814C12.6835 15.0284 15.9787 11.8936 20 11.8936C24.0213 11.8936 27.3165 15.0284 27.5904 18.9814C28.036 19.068 28.4399 19.2614 28.7891 19.5257V19.5107C28.7891 14.6642 24.8466 10.7217 20 10.7217Z" fill="black"/>
</g>
<defs>
<clipPath id="clip0_2224_6383">
<rect width="20" height="20" fill="white" transform="translate(10 10.7217)"/>
</clipPath>
</defs>
</svg>
