<svg width="40" height="41" viewBox="0 0 40 41" fill="none" xmlns="http://www.w3.org/2000/svg">
<rect y="0.72168" width="40" height="40" rx="7" fill="#FCFCFC"/>
<g clip-path="url(#clip0_2226_6384)">
<path d="M25.5196 17.1248C25.3864 16.9953 25.1995 16.9365 25.0166 16.9666C24.8333 16.9965 24.6751 17.1116 24.5901 17.2766C24.2977 17.8446 23.9264 18.3665 23.4895 18.8279C23.5331 18.4946 23.555 18.1593 23.555 17.8231C23.555 17.1781 23.4686 16.5143 23.298 15.85C22.7371 13.6679 21.2664 11.8225 19.2631 10.7871C19.0887 10.697 18.8809 10.7001 18.7093 10.7955C18.5377 10.891 18.4253 11.0659 18.4099 11.2616C18.2537 13.2446 17.2323 15.0487 15.606 16.2124C15.5845 16.2279 15.5631 16.2436 15.5418 16.2593C15.4975 16.2916 15.4558 16.3223 15.4168 16.348C15.4107 16.352 15.4047 16.3562 15.3987 16.3604C14.3759 17.0927 13.532 18.0689 12.958 19.1837C12.3748 20.3177 12.0791 21.5345 12.0791 22.8003C12.0791 23.4452 12.1655 24.109 12.3361 24.7734C13.2359 28.2757 16.3876 30.7217 20.0005 30.7217C24.3681 30.7217 27.9214 27.1682 27.9214 22.8003C27.9214 20.6464 27.0684 18.6308 25.5196 17.1248Z" fill="#171926"/>
</g>
<defs>
<clipPath id="clip0_2226_6384">
<rect width="20" height="20" fill="white" transform="translate(10 10.7217)"/>
</clipPath>
</defs>
</svg>
