<svg width="40" height="41" viewBox="0 0 40 41" fill="none" xmlns="http://www.w3.org/2000/svg">
<rect y="0.72168" width="40" height="40" rx="7" fill="#FCFCFC"/>
<g clip-path="url(#clip0_2226_6386)">
<path d="M18.2341 17.6058C18.5508 17.7175 18.8771 17.552 18.9854 17.2556C19.0949 16.953 18.9419 16.6165 18.6352 16.5043C18.3221 16.3927 17.9932 16.5558 17.8839 16.8545C17.7745 17.1572 17.9275 17.4936 18.2341 17.6058Z" fill="#F46865"/>
<path d="M20.3147 19.3271C22.3255 19.2727 24.3007 18.554 25.8771 17.3031C26.0787 17.1435 26.3167 17.0507 26.5638 16.9911L26.7949 16.3562C26.8813 16.1193 26.8064 15.8538 26.6084 15.697C24.6383 14.1337 22.1681 13.2348 19.6533 13.1655C17.4537 13.1055 15.3629 12.3351 13.6062 11.0128L13.3934 10.848C13.2463 10.7318 13.0524 10.6929 12.8704 10.7438C12.689 10.7953 12.5436 10.9303 12.4795 11.1072L10.0355 17.7535C9.94908 17.9903 10.024 18.2558 10.2215 18.4126C11.6039 19.5094 13.2726 20.2704 14.9889 20.6563C16.6438 19.8449 18.4662 19.3779 20.3147 19.3271ZM21.1876 18.0569C21.2983 17.7528 21.6346 17.596 21.9386 17.7067C22.2428 17.8174 22.3995 18.1536 22.2888 18.4577C22.1782 18.7618 21.842 18.9186 21.5378 18.8079C21.2338 18.6973 21.077 18.361 21.1876 18.0569ZM16.7831 16.454C17.1144 15.5436 18.1267 15.0721 19.0359 15.4034C19.9468 15.7347 20.4183 16.7458 20.0865 17.6562C19.7555 18.5665 18.7438 19.0391 17.8337 18.7068C16.9219 18.3745 16.4497 17.3687 16.7831 16.454ZM14.5804 15.6521C14.6911 15.348 15.0273 15.1912 15.3315 15.3019C15.6355 15.4126 15.7923 15.7488 15.6817 16.0529C15.571 16.357 15.2347 16.5138 14.9306 16.4031C14.6265 16.2924 14.4697 15.9562 14.5804 15.6521Z" fill="#F46865"/>
<path d="M15.6099 30.3359C15.674 30.5132 15.8199 30.6483 16.0007 30.6992C16.1869 30.7519 16.3805 30.709 16.5248 30.5945C18.2981 29.1874 20.5211 28.3393 22.7836 28.2775C25.2985 28.2083 27.8077 27.3093 29.7784 25.746C29.9758 25.5892 30.0508 25.3237 29.9644 25.0869L27.5204 18.4796C27.4563 18.3022 27.3104 18.1672 27.1295 18.1163C26.9476 18.0648 26.7536 18.1037 26.6054 18.221C24.8321 19.6281 22.6091 20.4371 20.3466 20.4984C17.8323 20.5676 15.3621 21.4665 13.3914 23.0304C13.1935 23.1872 13.1185 23.4527 13.2049 23.6896L15.6099 30.3359ZM24.6684 22.635C24.9725 22.5244 25.3087 22.6812 25.4194 22.9852C25.5301 23.2894 25.3734 23.6256 25.0692 23.7362C24.7652 23.8469 24.4289 23.6901 24.3182 23.386C24.2075 23.0819 24.3643 22.7457 24.6684 22.635ZM20.964 22.7362C21.875 22.4049 22.8861 22.8764 23.2168 23.7868C23.5487 24.6972 23.0772 25.7083 22.1662 26.0396C21.2585 26.3703 20.2481 25.9073 19.9134 24.989C19.5816 24.0786 20.053 23.0675 20.964 22.7362ZM18.0612 25.0399C18.3653 24.9292 18.7015 25.086 18.8122 25.3901C18.9229 25.6942 18.7661 26.0304 18.462 26.1411C18.1579 26.2518 17.8217 26.095 17.711 25.7909C17.6003 25.4867 17.7571 25.1505 18.0612 25.0399Z" fill="#171926"/>
<path d="M21.7656 24.9387C22.0727 24.8264 22.2252 24.4896 22.1158 24.1874C22.0066 23.8888 21.6778 23.7255 21.3645 23.8372C21.0574 23.9495 20.9049 24.2862 21.0143 24.5885C21.1245 24.8896 21.4577 25.0508 21.7656 24.9387Z" fill="#171926"/>
</g>
<defs>
<clipPath id="clip0_2226_6386">
<rect width="20" height="20" fill="white" transform="translate(10 10.7217)"/>
</clipPath>
</defs>
</svg>
