<svg width="20" height="20" viewBox="0 0 20 20" fill="none" xmlns="http://www.w3.org/2000/svg">
<g clip-path="url(#clip0_2119_5777)">
<path d="M19.9465 7.65881C19.7924 7.18454 19.3321 6.85856 18.6836 6.76438L13.541 6.01702L11.2412 1.35703C10.9511 0.769409 10.4988 0.432373 10.0002 0.432373C9.50164 0.432373 9.04936 0.769409 8.75936 1.35703L6.4596 6.01698L1.3169 6.76434C0.668373 6.85852 0.208092 7.18454 0.0539879 7.65873C-0.100077 8.13295 0.0807071 8.66722 0.549894 9.12461L4.27116 12.7518L3.39267 17.8738C3.27716 18.5476 3.47334 18.9505 3.6583 19.1698C3.87463 19.4264 4.19022 19.5677 4.54695 19.5677C4.81664 19.5677 5.10387 19.4886 5.40048 19.3326L10.0002 16.9143L14.6 19.3325C14.8967 19.4885 15.1839 19.5676 15.4536 19.5676H15.4537C15.8104 19.5676 16.126 19.4264 16.3424 19.1698C16.5273 18.9505 16.7235 18.5475 16.608 17.8738L15.7294 12.7519L19.4506 9.12469C19.9198 8.6673 20.1006 8.13299 19.9465 7.65881Z" fill="#C9AF27"/>
</g>
<defs>
<clipPath id="clip0_2119_5777">
<rect width="20" height="20" fill="white" transform="translate(0.000244141)"/>
</clipPath>
</defs>
</svg>
