<svg width="20" height="20" viewBox="0 0 20 20" fill="none" xmlns="http://www.w3.org/2000/svg">
<g clip-path="url(#clip0_2119_5771)">
<path d="M15.5198 6.40309C15.3866 6.27363 15.1997 6.21481 15.0168 6.24488C14.8336 6.27485 14.6753 6.38989 14.5903 6.55496C14.298 7.1229 13.9267 7.64481 13.4898 8.10618C13.5333 7.7729 13.5553 7.43762 13.5553 7.10145C13.5553 6.45641 13.4688 5.79262 13.2982 5.12828C12.7374 2.9462 11.2667 1.10085 9.26334 0.0654149C9.08892 -0.0247026 8.88111 -0.0215385 8.70951 0.0738524C8.53791 0.169282 8.42552 0.344244 8.41013 0.539947C8.25396 2.52292 7.23255 4.32699 5.60626 5.49074C5.58474 5.50625 5.56337 5.52195 5.54201 5.53758C5.49775 5.56996 5.45603 5.60059 5.41704 5.62629C5.41095 5.63035 5.4049 5.63449 5.39896 5.63875C4.37615 6.37106 3.5322 7.34723 2.95825 8.46204C2.37505 9.59599 2.07935 10.8128 2.07935 12.0787C2.07935 12.7235 2.16579 13.3873 2.3363 14.0517C3.2361 17.554 6.38783 20 10.0007 20C14.3683 20 17.9216 16.4465 17.9216 12.0787C17.9216 9.92474 17.0687 7.90911 15.5198 6.40309V6.40309Z" fill="#F46865"/>
</g>
<defs>
<clipPath id="clip0_2119_5771">
<rect width="20" height="20" fill="white" transform="translate(0.000244141)"/>
</clipPath>
</defs>
</svg>
