<svg width="20" height="20" viewBox="0 0 20 20" fill="none" xmlns="http://www.w3.org/2000/svg">
<path d="M3.12524 16.25C3.12524 16.913 3.38864 17.5489 3.85748 18.0178C4.32632 18.4866 4.9622 18.75 5.62524 18.75H9.21899C9.26043 18.75 9.30018 18.7335 9.32948 18.7042C9.35878 18.6749 9.37524 18.6352 9.37524 18.5938V11.4062C9.37524 11.3648 9.35878 11.3251 9.32948 11.2958C9.30018 11.2665 9.26043 11.25 9.21899 11.25H3.43774C3.35486 11.25 3.27538 11.2829 3.21677 11.3415C3.15817 11.4001 3.12524 11.4796 3.12524 11.5625V16.25Z" fill="#8349F8"/>
<path d="M9.37524 9.84371V5.62496H10.6252V9.84371C10.6252 9.88515 10.6417 9.92489 10.671 9.9542C10.7003 9.9835 10.7401 9.99996 10.7815 9.99996H16.2502C16.4632 9.99995 16.6745 9.96362 16.8752 9.89254C17.2405 9.76286 17.5567 9.52338 17.7805 9.20692C18.0043 8.89047 18.1247 8.51254 18.1252 8.12496V7.49996C18.1252 7.00268 17.9277 6.52576 17.5761 6.17413C17.2244 5.8225 16.7475 5.62496 16.2502 5.62496H14.6666C14.653 5.62474 14.6397 5.62097 14.628 5.61403C14.6163 5.60708 14.6066 5.5972 14.5999 5.58536C14.5932 5.57352 14.5897 5.56013 14.5898 5.54652C14.5898 5.53291 14.5934 5.51955 14.6002 5.50777C14.9619 4.89718 15.0794 4.17244 14.9291 3.47887C14.7788 2.78531 14.3719 2.17419 13.7899 1.76807C13.208 1.36194 12.494 1.19082 11.7911 1.28903C11.0883 1.38724 10.4486 1.74752 10.0002 2.29761C9.5519 1.74752 8.91218 1.38724 8.20934 1.28903C7.50651 1.19082 6.79254 1.36194 6.21058 1.76807C5.62862 2.17419 5.2217 2.78531 5.07141 3.47887C4.92113 4.17244 5.03859 4.89718 5.40024 5.50777C5.40705 5.51955 5.41066 5.53291 5.41072 5.54652C5.41077 5.56013 5.40727 5.57352 5.40056 5.58536C5.39385 5.5972 5.38417 5.60708 5.37246 5.61403C5.36076 5.62097 5.34745 5.62474 5.33384 5.62496H3.75024C3.25296 5.62496 2.77605 5.8225 2.42442 6.17413C2.07279 6.52576 1.87524 7.00268 1.87524 7.49996V8.12496C1.8758 8.51254 1.99622 8.89047 2.22001 9.20692C2.4438 9.52338 2.76 9.76286 3.12524 9.89254C3.32595 9.96362 3.53732 9.99995 3.75024 9.99996H9.21899C9.26043 9.99996 9.30018 9.9835 9.32948 9.9542C9.35878 9.92489 9.37524 9.88515 9.37524 9.84371ZM10.6252 4.06246C10.6252 3.75342 10.7169 3.45133 10.8886 3.19438C11.0603 2.93743 11.3043 2.73716 11.5898 2.61889C11.8753 2.50063 12.1895 2.46969 12.4926 2.52998C12.7957 2.59027 13.0741 2.73908 13.2926 2.9576C13.5111 3.17612 13.6599 3.45453 13.7202 3.75763C13.7805 4.06072 13.7496 4.37489 13.6313 4.6604C13.513 4.94591 13.3128 5.18994 13.0558 5.36163C12.7989 5.53332 12.4968 5.62496 12.1877 5.62496H10.6252V4.06246ZM7.70103 2.50386C7.91509 2.48852 8.13001 2.51743 8.33241 2.58881C8.5348 2.66019 8.72032 2.77249 8.8774 2.91872C9.03448 3.06496 9.15975 3.24198 9.24541 3.43876C9.33106 3.63553 9.37526 3.84785 9.37524 4.06246V5.62496H7.81274C7.40872 5.62392 7.0208 5.46642 6.7304 5.18551C6.44001 4.90461 6.26971 4.52213 6.25525 4.11836C6.2408 3.71459 6.38331 3.32092 6.65288 3.01997C6.92244 2.71901 7.29811 2.53418 7.70103 2.50425V2.50386Z" fill="#8349F8"/>
<path d="M10.7815 18.75H14.3752C15.0383 18.75 15.6742 18.4866 16.143 18.0178C16.6119 17.5489 16.8752 16.913 16.8752 16.25V11.5625C16.8752 11.4796 16.8423 11.4001 16.7837 11.3415C16.7251 11.2829 16.6456 11.25 16.5627 11.25H10.7815C10.7401 11.25 10.7003 11.2665 10.671 11.2958C10.6417 11.3251 10.6252 11.3648 10.6252 11.4062V18.5938C10.6252 18.6352 10.6417 18.6749 10.671 18.7042C10.7003 18.7335 10.7401 18.75 10.7815 18.75Z" fill="#8349F8"/>
</svg>
