<svg width="20" height="20" viewBox="0 0 20 20" fill="none" xmlns="http://www.w3.org/2000/svg">
<path d="M13.1251 14.6875V10.625H7.461C7.29524 10.625 7.13627 10.5592 7.01906 10.4419C6.90185 10.3247 6.836 10.1658 6.836 10C6.836 9.83424 6.90185 9.67527 7.01906 9.55806C7.13627 9.44085 7.29524 9.375 7.461 9.375H13.1251V5.3125C13.1244 4.73253 12.8938 4.17649 12.4837 3.76639C12.0736 3.35629 11.5175 3.12562 10.9376 3.125H3.43756C2.85759 3.12562 2.30155 3.35629 1.89145 3.76639C1.48135 4.17649 1.25068 4.73253 1.25006 5.3125V14.6875C1.25068 15.2675 1.48135 15.8235 1.89145 16.2336C2.30155 16.6437 2.85759 16.8744 3.43756 16.875H10.9376C11.5175 16.8744 12.0736 16.6437 12.4837 16.2336C12.8938 15.8235 13.1244 15.2675 13.1251 14.6875V14.6875Z" fill="#F46865"/>
<path d="M16.6161 10.6249L14.5583 12.6831C14.446 12.8013 14.3843 12.9586 14.3864 13.1216C14.3885 13.2846 14.4542 13.4403 14.5694 13.5555C14.6847 13.6708 14.8404 13.7365 15.0034 13.7385C15.1663 13.7406 15.3237 13.679 15.4419 13.5667L18.5669 10.4417C18.684 10.3245 18.7498 10.1656 18.7498 9.99992C18.7498 9.83423 18.684 9.67532 18.5669 9.55812L15.4419 6.43312C15.3237 6.32086 15.1663 6.2592 15.0034 6.26128C14.8404 6.26337 14.6847 6.32904 14.5694 6.44429C14.4542 6.55954 14.3885 6.71525 14.3864 6.87823C14.3843 7.04121 14.446 7.19855 14.5583 7.31671L16.6161 9.37492H13.1251V10.6249H16.6161Z" fill="#F46865"/>
</svg>
