<svg width="120" height="39" viewBox="0 0 120 39" fill="none" xmlns="http://www.w3.org/2000/svg">
<path d="M12.7203 23.3005L12.4672 5.94863H18.4765C18.7964 5.94863 19.1724 5.9105 19.4526 5.66058C19.7488 5.39648 19.8095 5.01682 19.8095 4.67356V2.85065C19.8095 2.50944 19.7496 2.12661 19.4411 1.86811C19.1589 1.63172 18.7828 1.60452 18.4765 1.60452H2.15716C1.85086 1.60452 1.47473 1.63172 1.19259 1.86811C0.884061 2.12661 0.824219 2.50944 0.824219 2.85065V4.67356C0.824219 5.01682 0.88492 5.39648 1.18104 5.66058C1.46123 5.9105 1.83732 5.94863 2.15716 5.94863H7.8055L8.08688 23.3118C8.08723 23.627 8.12426 24.0126 8.40155 24.2899C8.67883 24.5671 9.07147 24.6117 9.41987 24.6117H11.3874C11.7358 24.6117 12.1285 24.5671 12.4057 24.2898C12.6842 24.0113 12.7204 23.6237 12.7204 23.3077V23.3041L12.7203 23.3005ZM27.1736 23.3077V23.3042L27.1735 23.3007L26.8843 2.90483C26.8839 2.57521 26.8348 2.19064 26.5453 1.91682C26.2636 1.65035 25.8735 1.60452 25.5223 1.60452H23.5837C23.2354 1.60452 22.8427 1.64908 22.5654 1.92638C22.2869 2.20486 22.2508 2.59252 22.2508 2.90852V2.91202L22.2508 2.91553L22.5401 23.3113C22.5404 23.6267 22.5774 24.0124 22.8548 24.2899C23.1321 24.5671 23.5247 24.6117 23.8731 24.6117H25.8407C26.189 24.6117 26.5816 24.5671 26.859 24.2899C27.1375 24.0113 27.1736 23.6237 27.1736 23.3077ZM30.9424 23.324L30.9425 23.3276L30.9427 23.3312C30.957 23.6322 30.9978 24.0122 31.2626 24.2847C31.5369 24.5671 31.9262 24.6117 32.2751 24.6117H34.2426C34.5906 24.6117 34.9867 24.5671 35.2668 24.2947C35.5576 24.012 35.5905 23.6184 35.5752 23.2886L35.4174 18.0786C37.9414 18.0704 40.8255 17.4988 43.1488 16.1541C45.6543 14.7039 47.5257 12.3367 47.5257 8.84018C47.5257 6.93979 46.8861 5.42838 45.8192 4.27532C44.7611 3.13175 43.3075 2.36654 41.71 1.89591C38.5234 0.957139 34.6422 1.15375 31.7597 2.00069L31.7582 2.00114C31.4887 2.08127 31.2516 2.15966 31.0582 2.25433C30.8579 2.35246 30.6728 2.48293 30.5378 2.6836C30.4053 2.88073 30.3539 3.09741 30.33 3.30513C30.3067 3.50755 30.3055 3.74683 30.3055 4.00805V4.01619L30.3058 4.02433L30.9424 23.324ZM42.8633 9.18739C42.8633 10.478 42.1483 11.5111 40.7569 12.2486C39.4368 12.9482 37.5413 13.3561 35.2133 13.405L34.9814 5.80408C37.4187 5.53134 39.3834 5.68107 40.7383 6.22744C41.4494 6.5142 41.9747 6.9028 42.323 7.38023C42.6687 7.85416 42.8633 8.44724 42.8633 9.18739Z" fill="white" stroke="white" stroke-width="0.987654"/>
<path d="M51.456 15.5693H51.4639L51.4713 15.5691L60.737 15.2799C60.8629 15.2788 61.016 15.2545 61.1621 15.164C61.3157 15.069 61.411 14.9327 61.4693 14.7967C61.572 14.5584 61.5903 14.2456 61.5903 13.918V11.9794C61.5903 11.6551 61.573 11.3425 61.4654 11.1059C61.4026 10.9673 61.3009 10.8353 61.1444 10.7473C60.9957 10.6641 60.8446 10.6465 60.7281 10.6465H60.7207L60.7128 10.6467L51.4471 10.9359C51.332 10.9368 51.1844 10.9555 51.0402 11.0367C50.8836 11.1247 50.7819 11.2567 50.7187 11.3953C50.611 11.6318 50.5938 11.9444 50.5938 12.2688V14.2364C50.5938 14.5607 50.611 14.8733 50.7187 15.1098C50.7819 15.2485 50.8836 15.3805 51.0402 15.4685C51.1883 15.5517 51.3394 15.5693 51.456 15.5693Z" fill="white" stroke="white" stroke-width="0.987654"/>
<path d="M72.4979 22.7432V22.7396L72.4974 22.736L72.2445 5.38418H78.2539C78.5734 5.38418 78.9497 5.34601 79.2297 5.09613C79.526 4.83202 79.5867 4.45238 79.5867 4.1091V2.2862C79.5867 1.94498 79.527 1.56215 79.2184 1.30365C78.9364 1.06727 78.5601 1.04006 78.2539 1.04006H61.9344C61.6282 1.04006 61.2519 1.06727 60.97 1.30365C60.6613 1.56215 60.6016 1.94498 60.6016 2.2862V4.1091C60.6016 4.45238 60.6623 4.83202 60.9581 5.09613C61.2386 5.34601 61.6144 5.38418 61.9344 5.38418H67.5828L67.8643 22.7473C67.8643 23.0626 67.9013 23.4481 68.1788 23.7254C68.4559 24.0027 68.849 24.0472 69.1971 24.0472H71.1645C71.5132 24.0472 71.9058 24.0027 72.1828 23.7254C72.4613 23.4469 72.4979 23.0592 72.4979 22.7432ZM102.612 22.7595V22.7631V22.7667C102.626 23.0677 102.667 23.4478 102.932 23.7203C103.206 24.0026 103.596 24.0472 103.944 24.0472H105.912C106.26 24.0472 106.656 24.0027 106.936 23.7303C107.227 23.4476 107.26 23.0539 107.245 22.7241L107.087 17.5142C109.611 17.5059 112.495 16.9344 114.818 15.5897C117.324 14.1395 119.195 11.7723 119.195 8.27574C119.195 6.37534 118.556 4.86391 117.488 3.71087C116.43 2.56729 114.977 1.80208 113.379 1.33145C110.193 0.392684 106.312 0.589301 103.429 1.43624L103.428 1.43669C103.158 1.51681 102.921 1.59521 102.727 1.68987C102.527 1.788 102.342 1.91848 102.207 2.11915C102.075 2.31627 102.023 2.53296 102 2.74067C101.976 2.94309 101.975 3.18238 101.975 3.4436V3.45174L101.975 3.45987L102.612 22.7595ZM114.533 8.62295C114.533 9.91356 113.818 10.9467 112.426 11.6841C111.106 12.3837 109.21 12.7916 106.883 12.8406L106.651 5.23959C109.088 4.9669 111.053 5.11658 112.407 5.66299C113.119 5.94976 113.644 6.3383 113.992 6.81574C114.338 7.28971 114.533 7.8828 114.533 8.62295Z" fill="white" stroke="white" stroke-width="0.987654"/>
<path d="M101.562 12.3627C101.562 18.8547 96.2997 24.1176 89.8078 24.1176C83.3159 24.1176 78.0527 18.8547 78.0527 12.3627C78.0527 5.87074 83.3159 0.60791 89.8078 0.60791C96.2997 0.60791 101.562 5.87074 101.562 12.3627Z" fill="#178B53"/>
<path d="M89.8081 23.0981C95.737 23.0981 100.543 18.2916 100.543 12.3626C100.543 6.43353 95.737 1.62709 89.8081 1.62709C83.8792 1.62709 79.0728 6.43353 79.0728 12.3626C79.0728 18.2916 83.8792 23.0981 89.8081 23.0981ZM101.069 12.3626C101.069 18.5819 96.0274 23.6236 89.8081 23.6236C83.5889 23.6236 78.5469 18.5819 78.5469 12.3626C78.5469 6.14331 83.5889 1.10156 89.8081 1.10156C96.0274 1.10156 101.069 6.14331 101.069 12.3626Z" fill="white" stroke="white" stroke-width="0.987654"/>
<path d="M96.1353 12.3627C96.1353 15.8584 93.3017 18.6923 89.8059 18.6923C86.3101 18.6923 83.4766 15.8584 83.4766 12.3627C83.4766 8.86703 86.3101 6.0332 89.8059 6.0332C93.3017 6.0332 96.1353 8.86703 96.1353 12.3627Z" fill="white"/>
<path fill-rule="evenodd" clip-rule="evenodd" d="M96.0148 13.598L94.5304 13.3044C94.5906 13.001 94.6222 12.6863 94.6222 12.3627C94.6222 12.0391 94.5906 11.7244 94.5304 11.4211L96.0148 11.1274C96.0938 11.527 96.1353 11.94 96.1353 12.3627C96.1353 12.7855 96.0938 13.1985 96.0148 13.598ZM95.0692 8.84594L93.8119 9.68777C93.4598 9.16189 93.0069 8.70881 92.481 8.35671L93.3225 7.09933C94.0129 7.5614 94.6074 8.15572 95.0692 8.84594ZM91.041 6.1537C90.6415 6.07464 90.2287 6.0332 89.8059 6.0332C89.3832 6.0332 88.9704 6.07464 88.5709 6.1537L88.8642 7.63809C89.1674 7.57809 89.4825 7.54639 89.8059 7.54639C90.1294 7.54639 90.4445 7.57809 90.7477 7.63809L91.041 6.1537ZM86.2889 7.09933L87.1309 8.35671C86.605 8.70881 86.1521 9.16189 85.8 9.68777L84.5427 8.84594C85.0045 8.15572 85.599 7.5614 86.2889 7.09933ZM83.5971 11.1274C83.518 11.527 83.4766 11.94 83.4766 12.3627C83.4766 12.7855 83.518 13.1985 83.5971 13.598L85.0815 13.3044C85.0213 13.001 84.9896 12.6863 84.9896 12.3627C84.9896 12.0391 85.0213 11.7244 85.0815 11.4211L83.5971 11.1274ZM84.5427 15.8795L85.8 15.0377C86.1521 15.5636 86.605 16.0167 87.1309 16.3688L86.2889 17.6261C85.599 17.164 85.0045 16.5697 84.5427 15.8795ZM88.5709 18.5718L88.8642 17.0874C89.1674 17.1474 89.4825 17.1791 89.8059 17.1791C90.1294 17.1791 90.4445 17.1474 90.7477 17.0874L91.041 18.5718C90.6415 18.6508 90.2287 18.6923 89.8059 18.6923C89.3832 18.6923 88.9704 18.6508 88.5709 18.5718ZM93.3225 17.6261L92.481 16.3688C93.0069 16.0167 93.4598 15.5636 93.8119 15.0377L95.0692 15.8795C94.6074 16.5697 94.0129 17.164 93.3225 17.6261Z" fill="#178B53"/>
<path d="M9.00119 30.7719L7.90064 31.8219C7.152 31.032 6.30978 30.6371 5.37398 30.6371C4.58415 30.6371 3.91782 30.9066 3.37506 31.4457C2.83605 31.9847 2.56652 32.6491 2.56652 33.439C2.56652 33.9892 2.68632 34.4777 2.92587 34.9044C3.16543 35.3311 3.50419 35.6662 3.94217 35.9095C4.38014 36.1528 4.86676 36.2745 5.40202 36.2745C5.85871 36.2745 6.2761 36.1902 6.65417 36.0218C7.0322 35.8496 7.4477 35.5389 7.90064 35.0897L8.96745 36.2014C8.35733 36.7966 7.78089 37.2103 7.23807 37.4423C6.69531 37.6707 6.0758 37.7848 5.37956 37.7848C4.09565 37.7848 3.0438 37.3787 2.22405 36.5664C1.408 35.7504 1 34.706 1 33.4333C1 32.6098 1.18528 31.878 1.55585 31.2379C1.93017 30.5978 2.4636 30.0831 3.1561 29.6938C3.85234 29.3045 4.60098 29.1099 5.40202 29.1099C6.08331 29.1099 6.73837 29.254 7.36726 29.5422C7.99985 29.8305 8.54449 30.2403 9.00119 30.7719Z" fill="#178B53"/>
<path d="M12.8986 29.3179H14.4932L17.671 37.5773H16.0369L15.3915 35.876H12.0225L11.3488 37.5773H9.71484L12.8986 29.3179ZM13.707 31.5076L12.6063 34.3432H14.8019L13.707 31.5076Z" fill="#178B53"/>
<path d="M23.2256 30.4406L22.0636 31.4681C21.6552 30.8991 21.2399 30.6147 20.8167 30.6147C20.6112 30.6147 20.4424 30.6708 20.3115 30.7831C20.1806 30.8916 20.115 31.0152 20.115 31.1537C20.115 31.2922 20.1619 31.4232 20.2552 31.5467C20.3826 31.7114 20.7663 32.0652 21.4063 32.6079C22.0053 33.1095 22.3683 33.4258 22.4957 33.5568C22.8137 33.8788 23.0384 34.1876 23.1693 34.4833C23.3041 34.7752 23.3717 35.0953 23.3717 35.4434C23.3717 36.121 23.1377 36.6806 22.67 37.1223C22.2019 37.564 21.5915 37.7848 20.8394 37.7848C20.2517 37.7848 19.7387 37.6407 19.3011 37.3525C18.8666 37.0642 18.4942 36.6113 18.1836 35.9937L19.5031 35.1964C19.8996 35.9263 20.3564 36.2913 20.873 36.2913C21.1426 36.2913 21.3688 36.2127 21.5525 36.0554C21.7357 35.8983 21.8275 35.7167 21.8275 35.5108C21.8275 35.3236 21.7584 35.1365 21.6196 34.9493C21.4814 34.7622 21.1762 34.4758 20.7046 34.0903C19.8063 33.3566 19.2261 32.7913 18.9638 32.3946C18.7021 31.9941 18.5708 31.5954 18.5708 31.1986C18.5708 30.6259 18.788 30.1355 19.2221 29.7275C19.6601 29.3157 20.1994 29.1099 20.8394 29.1099C21.2512 29.1099 21.6424 29.2053 22.0127 29.3962C22.387 29.5871 22.7915 29.9352 23.2256 30.4406Z" fill="#178B53"/>
<path d="M24.7676 29.3179H26.3286V37.5773H24.7676V29.3179Z" fill="#178B53"/>
<path d="M28.1094 29.3179H29.6141L33.1573 34.7531V29.3179H34.7296V37.5773H33.219L29.6817 32.159V37.5773H28.1094V29.3179Z" fill="#178B53"/>
<path d="M40.5176 29.1099C41.6855 29.1099 42.689 29.5329 43.527 30.3789C44.3695 31.2248 44.7907 32.2561 44.7907 33.4726C44.7907 34.678 44.3749 35.698 43.5443 36.5327C42.7166 37.3674 41.7117 37.7848 40.529 37.7848C39.29 37.7848 38.2603 37.3562 37.4406 36.499C36.6208 35.6418 36.2109 34.6236 36.2109 33.4445C36.2109 32.6547 36.4021 31.9285 36.7838 31.266C37.1655 30.6034 37.6895 30.0794 38.3561 29.6938C39.0258 29.3045 39.7467 29.1099 40.5176 29.1099ZM40.5008 30.6483C39.7374 30.6483 39.0954 30.9141 38.5749 31.4457C38.0544 31.9772 37.7946 32.6528 37.7946 33.4726C37.7946 34.386 38.122 35.1084 38.7769 35.6399C39.286 36.0554 39.8702 36.2632 40.529 36.2632C41.2737 36.2632 41.9082 35.9937 42.4322 35.4547C42.9561 34.9156 43.2183 34.2512 43.2183 33.4614C43.2183 32.6753 42.9546 32.0109 42.4267 31.4681C41.8988 30.9216 41.2569 30.6483 40.5008 30.6483Z" fill="#178B53"/>
</svg>
